<svg xmlns="http://www.w3.org/2000/svg" width="512" height="512" viewBox="0 0 512 512">
  <defs>
    <linearGradient id="bg" x1="0" y1="0" x2="1" y2="1">
      <stop offset="0%" stop-color="#0f172a"/>
      <stop offset="100%" stop-color="#1d4ed8"/>
    </linearGradient>
    <linearGradient id="mark" x1="0" y1="0" x2="1" y2="1">
      <stop offset="0%" stop-color="#93c5fd"/>
      <stop offset="100%" stop-color="#ffffff"/>
    </linearGradient>
  </defs>
  <rect width="512" height="512" rx="120" fill="url(#bg)"/>
  <circle cx="256" cy="256" r="160" fill="#ffffff" opacity="0.08"/>
  <path d="M178 144h77c65 0 103 34 103 88 0 59-44 95-108 95h-28v67h-44V144zm44 36v112h26c41 0 65-19 65-56 0-37-22-56-63-56h-28z" fill="url(#mark)"/>
  <path d="M256 292c23 0 42 18 42 42s-19 42-42 42-42-18-42-42 19-42 42-42zm0 22a20 20 0 1 0 0 40 20 20 0 0 0 0-40z" fill="#34d399"/>
  <circle cx="336" cy="170" r="22" fill="#34d399"/>
</svg>
